<?xml version="1.0" encoding="utf-8"?>
<!-- Svg Vector Icons : http://www.onlinewebfonts.com/icon -->
<!DOCTYPE svg PUBLIC "-//W3C//DTD SVG 1.1//EN" "http://www.w3.org/Graphics/SVG/1.1/DTD/svg11.dtd">
<svg version="1.1" xmlns="http://www.w3.org/2000/svg" xmlns:xlink="http://www.w3.org/1999/xlink" x="0px" y="0px" viewBox="0 0 1000 1000" enable-background="new 0 0 1000 1000" xml:space="preserve">
<metadata> Svg Vector Icons : http://www.onlinewebfonts.com/icon </metadata>
<g><g transform="translate(0.000000,511.000000) scale(0.100000,-0.100000)"><path fill="white" d="M4181.9,3893.2c-107.9-54-153.3-142.5-153.3-302.2v-136h-88.5c-146.8,0-250.4-43.2-341-142.5c-99.3-105.8-118.7-190-107.9-479.2c8.6-215.9,49.6-300,187.8-395l77.7-51.8l1187.2-6.5c809.5-4.3,1215.3,0,1269.3,17.3c107.9,30.2,209.4,120.9,256.9,226.6c51.8,114.4,56.1,449,8.6,567.7c-69.1,164.1-220.2,261.2-403.7,263.3h-103.6v131.7c0,159.7-51.8,256.9-159.7,308.7c-62.6,30.2-177,34.5-815.9,34.5C4350.3,3929.9,4246.7,3923.4,4181.9,3893.2z"/><path fill="white" d="M946.3,2842c-284.9-69.1-578.5-295.7-710.2-546.1c-144.6-269.8-136-118.7-136-2715.5c0-2093.8,4.3-2367.9,34.5-2473.7c101.4-347.5,362.6-626,710.2-757.7l129.5-49.6l3969.6-6.5c4345.2-6.5,4079.7-13,4351.7,118.7c144.6,69.1,399.3,319.5,479.2,472.7c129.5,241.8,125.2,149,125.2,2696.1c0,2538.5,4.3,2445.6-120.9,2693.9c-82.1,159.7-306.5,384.2-468.4,466.3c-254.7,129.5-274.1,131.7-1387.9,131.7H6906.1l-15.1-79.9c-6.5-45.3-12.9-103.6-12.9-129.5c0-177-202.9-464.1-403.7-572c-181.3-99.3-293.6-105.8-1560.6-99.3c-1174.3,6.5-1176.4,6.5-1299.5,56.1c-155.4,62.6-347.5,235.3-418.8,375.6c-30.2,58.3-64.8,183.5-77.7,278.5l-25.9,170.5l-1016.7-2.2C1332.6,2870,1030.4,2861.4,946.3,2842z M3370.3,1523.1c572-144.6,1059.9-544,1327.5-1083.6c142.5-287.1,200.7-544,200.7-891.5c2.2-433.9-95-777.1-315.1-1118.1c-207.2-321.6-494.3-572-846.2-740.4c-597.9-287.1-1249.8-274.1-1845.6,36.7C1160-1889.6,723.9-1071.5,812.4-255.6C918.2,700.7,1637,1443.2,2593.2,1577.1C2794,1605.1,3139.4,1581.4,3370.3,1523.1z M8816.4,471.9l6.5-211.5H7169.4H5518.1v215.9v215.9l1647-4.3l1644.8-6.5L8816.4,471.9z M8820.7-419.6v-205.1H7169.4H5518.1v205.1v205.1h1651.3h1651.3V-419.6z M8820.7-1304.6v-205.1H7169.4H5518.1v205.1v205.1h1651.3h1651.3V-1304.6z"/><path fill="white" d="M2539.3,1158.3c-351.8-77.7-578.5-200.8-844-466.3c-174.8-174.8-220.2-235.3-306.5-410.1c-110.1-224.5-157.6-399.3-179.2-647.6c-25.9-315.1,84.2-721,272-1008.1l73.4-112.2l38.9,103.6c51.8,138.1,88.5,166.2,313,241.7c103.6,36.7,259,103.6,343.2,148.9l153.3,84.2l79.9-252.6c45.3-138.2,107.9-334.6,140.3-436l60.4-183.5l49.6,148.9l47.5,146.8l-45.3,92.8c-54,110.1-58.3,211.5-8.6,250.4c45.3,38.9,226.7,38.9,272,0c49.6-38.8,45.3-140.3-8.6-250.4l-45.3-92.8l47.5-146.8l49.6-148.9l49.7,151.1c28.1,84.2,88.5,278.5,138.1,433.9l88.5,282.8l200.7-103.6c110.1-56.1,261.2-118.7,334.6-140.3c159.7-43.2,241.8-116.6,280.6-246.1l28.1-92.8l62.6,95c222.3,328.1,325.9,736.1,280.6,1103c-28.1,231-110.1,487.8-211.5,664.8c-118.7,202.9-412.3,492.1-610.9,602.2c-256.9,140.3-464.1,198.6-755.5,209.4C2765.9,1184.2,2629.9,1177.7,2539.3,1158.3z M3074.6,769.8c66.9-23.8,215.9-129.5,338.9-241.8c73.4-66.9,103.6-207.2,88.5-399.3c-8.6-88.5-6.5-185.6,4.3-215.8c34.5-90.7-69.1-410.1-123-375.6c-10.8,4.3-28.1-30.2-41-82c-133.8-524.5-833.2-537.5-990.8-15.1c-19.4,64.8-54,138.2-73.4,161.9c-47.5,54-107.9,278.5-90.6,330.3c8.6,19.4,23.7,43.2,36.7,51.8c15.1,8.6,21.6,71.2,17.3,155.4c-6.5,114.4,2.2,164.1,45.3,259c110.1,237.4,349.7,403.7,585,399.3C2945.1,797.8,3035.7,784.9,3074.6,769.8z"/></g></g>
</svg>
