<?xml version="1.0" encoding="utf-8"?>
<!-- Generator: Adobe Illustrator 19.2.0, SVG Export Plug-In . SVG Version: 6.00 Build 0)  -->
<svg version="1.1" xmlns="http://www.w3.org/2000/svg" xmlns:xlink="http://www.w3.org/1999/xlink" x="0px" y="0px"
	 viewBox="0 0 640 480" style="enable-background:new 0 0 640 480;" xml:space="preserve">
<style type="text/css">
	.st0{fill:#9C9C9C;stroke:#231F20;stroke-linecap:round;stroke-miterlimit:10;}
	.st1{fill:#FFFFFF;stroke:#231F20;stroke-linecap:round;stroke-miterlimit:10;}
	.st2{fill:#FF9988;stroke:#231F20;stroke-linecap:round;stroke-miterlimit:10;}
	.st3{fill:#DD0033;stroke:#231F20;stroke-linecap:round;stroke-miterlimit:10;}
</style>
<g id="Suit">
	<polygon class="st0" points="72.1,480 72.1,447 286.5,398.1 360.8,398.1 575.2,447.5 575.2,480 	"/>
</g>
<g id="Tie">
	<polygon class="st1" points="286.5,398.1 269.8,401.9 287.9,480 306.1,480 	"/>
	<polygon class="st1" points="360.8,398.1 342.1,480 358.3,480 376.7,401.8 	"/>
</g>
<g id="Face">
	<path class="st2" d="M286.5,398.1c-2.6-3.7-80.2-57.1-80.2-57.1V190.1H441v151.6l-80.2,56.5H286.5z"/>
</g>
<g id="Hat">
	<polygon class="st3" points="132,198 514,198 514,180 450,180 449,143 196,143 196,180 132,181 	"/>
</g>
</svg>
